<?xml version="1.0" standalone="no"?>
<!DOCTYPE svg PUBLIC "-//W3C//DTD SVG 20010904//EN"
 "http://www.w3.org/TR/2001/REC-SVG-20010904/DTD/svg10.dtd">
<svg version="1.0" xmlns="http://www.w3.org/2000/svg"
 width="500.000000pt" height="500.000000pt" viewBox="0 0 500.000000 500.000000"
 preserveAspectRatio="xMidYMid meet">
<metadata>
Created by potrace 1.14, written by Peter Selinger 2001-2017
</metadata>
<g transform="translate(0.000000,500.000000) scale(0.100000,-0.100000)"
fill="#000000" stroke="none">
<path d="M2440 3215 l0 -266 103 -127 c57 -70 140 -175 186 -234 46 -60 86
-108 90 -108 3 0 24 21 47 48 22 26 65 61 95 77 49 27 63 30 145 30 81 0 96
-3 150 -30 45 -23 68 -44 96 -85 64 -94 68 -125 68 -562 l0 -388 156 0 155 0
-3 443 c-4 417 -5 446 -26 520 -76 276 -291 415 -581 378 -103 -13 -178 -47
-281 -125 l-75 -57 -3 375 -2 376 -160 0 -160 0 0 -265z"/>
<path d="M1277 3433 c-4 -3 -7 -433 -7 -955 l0 -948 150 0 150 0 0 50 c0 28 3
50 6 50 3 0 18 -9 34 -20 82 -59 241 -96 364 -86 175 15 314 72 414 172 34 34
62 69 62 78 0 9 -41 71 -91 137 l-90 120 -28 -38 c-40 -55 -97 -102 -161 -132
-46 -22 -69 -26 -145 -26 -77 0 -98 4 -150 28 -76 35 -138 95 -178 172 -29 55
-31 68 -32 160 0 91 3 105 29 157 92 182 296 260 490 187 31 -11 68 -36 93
-61 22 -24 156 -197 297 -385 141 -189 258 -343 261 -343 3 0 5 103 5 229 l0
229 -181 233 c-100 129 -202 255 -227 281 -51 53 -158 110 -247 133 -159 40
-408 -5 -507 -93 -17 -14 -18 2 -18 331 l0 347 -143 0 c-79 0 -147 -3 -150 -7z"/>
</g>
</svg>
